<?xml version="1.0" encoding="utf-8"?>
<!-- Generator: Adobe Illustrator 24.1.0, SVG Export Plug-In . SVG Version: 6.00 Build 0)  -->
<svg version="1.1" id="Layer_1" xmlns="http://www.w3.org/2000/svg" xmlns:xlink="http://www.w3.org/1999/xlink" x="0px" y="0px"
	 viewBox="0 0 32 32" style="enable-background:new 0 0 32 32;" xml:space="preserve">
<g>
	<path id="apple" d="M24.4,16.9c0,4.5,4.1,6,4.1,6c0,0.1-0.6,2.1-2.1,4.2c-1.3,1.8-2.6,3.6-4.7,3.6c-2.1,0-2.7-1.2-5.1-1.2
		c-2.3,0-3.1,1.1-5,1.2c-2,0.1-3.5-2-4.8-3.8c-2.6-3.7-4.6-10.4-1.9-14.9c1.3-2.3,3.7-3.7,6.3-3.7c2,0,3.8,1.3,5.1,1.3
		c1.2,0,3.5-1.6,5.9-1.4c1,0,3.8,0.4,5.6,2.9C27.5,11.4,24.3,13.2,24.4,16.9 M20.5,5.9c1.1-1.3,1.8-3,1.6-4.7
		c-1.5,0.1-3.4,1-4.5,2.2c-1,1.1-1.9,2.9-1.6,4.6C17.7,8.1,19.4,7.2,20.5,5.9"/>
</g>
</svg>
